MerriweatherSans-Bold.ufo
<glyph name="parenleft" format="1">
  <advance width="835"/>
  <unicode hex="0028"/>
  <outline>
    <contour>
      <point x="599" y="-360" type="curve"/>
      <point x="780" y="-244" type="line"/>
      <point x="680" y="-172"/>
      <point x="407" y="122"/>
      <point x="407" y="707" type="curve" smooth="yes"/>
      <point x="407" y="1266"/>
      <point x="704" y="1595"/>
      <point x="780" y="1651" type="curve"/>
      <point x="599" y="1767" type="line"/>
      <point x="483" y="1699"/>
      <point x="130" y="1329"/>
      <point x="130" y="717" type="curve" smooth="yes"/>
      <point x="130" y="12"/>
      <point x="508" y="-305"/>
    </contour>
  </outline>
</glyph>
<glyph name="hyphen" format="1">
  <advance width="1360"/>
  <unicode hex="002D"/>
  <outline>
    <contour>
      <point x="255" y="644" type="line"/>
      <point x="1105" y="644" type="line"/>
      <point x="1105" y="889" type="line"/>
      <point x="255" y="889" type="line"/>
    </contour>
  </outline>
</glyph>
<glyph name="period" format="1">
  <advance width="641"/>
  <unicode hex="002E"/>
  <outline>
    <contour>
      <point x="313" y="-22" type="curve" smooth="yes"/>
      <point x="426" y="-22"/>
      <point x="517" y="76"/>
      <point x="515" y="191" type="curve" smooth="yes"/>
      <point x="514" y="299"/>
      <point x="446" y="383"/>
      <point x="330" y="383" type="curve" smooth="yes"/>
      <point x="218" y="383"/>
      <point x="125" y="284"/>
      <point x="126" y="171" type="curve" smooth="yes"/>
      <point x="127" y="61"/>
      <point x="206" y="-22"/>
    </contour>
  </outline>
</glyph>
<glyph name="equal" format="1">
  <advance width="1423"/>
  <unicode hex="003D"/>
  <outline>
    <contour>
      <point x="251" y="923" type="line"/>
      <point x="1172" y="923" type="line"/>
      <point x="1172" y="1139" type="line"/>
      <point x="251" y="1139" type="line"/>
    </contour>
    <contour>
      <point x="251" y="411" type="line"/>
      <point x="1172" y="411" type="line"/>
      <point x="1172" y="627" type="line"/>
      <point x="251" y="627" type="line"/>
    </contour>
  </outline>
</glyph>
<glyph name="question" format="1">
  <advance width="1057"/>
  <unicode hex="003F"/>
  <outline>
    <contour>
      <point x="337" y="506" type="curve"/>
      <point x="575" y="506" type="line"/>
      <point x="551" y="594"/>
      <point x="533" y="636"/>
      <point x="539" y="710" type="curve" smooth="yes"/>
      <point x="559" y="976"/>
      <point x="986" y="1023"/>
      <point x="986" y="1395" type="curve" smooth="yes"/>
      <point x="991" y="1625"/>
      <point x="843" y="1846"/>
      <point x="395" y="1846" type="curve" smooth="yes"/>
      <point x="268" y="1846"/>
      <point x="166" y="1821"/>
      <point x="126" y="1797" type="curve"/>
      <point x="126" y="1565" type="line"/>
      <point x="157" y="1572"/>
      <point x="209" y="1591"/>
      <point x="332" y="1591" type="curve" smooth="yes"/>
      <point x="555" y="1591"/>
      <point x="657" y="1521"/>
      <point x="657" y="1380" type="curve" smooth="yes"/>
      <point x="657" y="1117"/>
      <point x="255" y="1085"/>
      <point x="259" y="775" type="curve" smooth="yes"/>
      <point x="261" y="644"/>
      <point x="300" y="561"/>
    </contour>
    <contour>
      <point x="482" y="-22" type="curve" smooth="yes"/>
      <point x="585" y="-22"/>
      <point x="674" y="67"/>
      <point x="673" y="172" type="curve" smooth="yes"/>
      <point x="672" y="271"/>
      <point x="605" y="347"/>
      <point x="497" y="347" type="curve" smooth="yes"/>
      <point x="396" y="347"/>
      <point x="304" y="258"/>
      <point x="306" y="154" type="curve" smooth="yes"/>
      <point x="307" y="53"/>
      <point x="384" y="-22"/>
    </contour>
  </outline>
</glyph>
<glyph name="G" format="1">
  <advance width="1494"/>
  <unicode hex="0047"/>
  <outline>
    <contour>
      <point x="100" y="753" type="curve" smooth="yes"/>
      <point x="100" y="287"/>
      <point x="364" y="-16"/>
      <point x="827" y="-16" type="curve" smooth="yes"/>
      <point x="1152" y="-16"/>
      <point x="1281" y="85"/>
      <point x="1372" y="90" type="curve"/>
      <point x="1372" y="820" type="line"/>
      <point x="837" y="820" type="line"/>
      <point x="837" y="583" type="line"/>
      <point x="1120" y="569" type="line"/>
      <point x="1070" y="613" type="line"/>
      <point x="1070" y="266" type="line"/>
      <point x="1011" y="244"/>
      <point x="933" y="228"/>
      <point x="815" y="228" type="curve" smooth="yes"/>
      <point x="551" y="228"/>
      <point x="431" y="473"/>
      <point x="431" y="780" type="curve" smooth="yes"/>
      <point x="431" y="1098"/>
      <point x="595" y="1286"/>
      <point x="860" y="1286" type="curve" smooth="yes"/>
      <point x="1082" y="1286"/>
      <point x="1183" y="1251"/>
      <point x="1279" y="1205" type="curve"/>
      <point x="1289" y="1478" type="line"/>
      <point x="1155" y="1504"/>
      <point x="1090" y="1538"/>
      <point x="859" y="1538" type="curve" smooth="yes"/>
      <point x="433" y="1538"/>
      <point x="100" y="1299"/>
    </contour>
    <contour>
      <point x="818" y="-170" type="move" name="btm"/>
    </contour>
    <contour>
      <point x="841" y="1701" type="move" name="top"/>
    </contour>
  </outline>
</glyph>
<glyph name="M" format="1">
  <advance width="1886"/>
  <unicode hex="004D"/>
  <outline>
    <contour>
      <point x="70" y="-1" type="line"/>
      <point x="365" y="0" type="line"/>
      <point x="430" y="816" type="line"/>
      <point x="466" y="1282" type="line"/>
      <point x="579" y="816" type="line"/>
      <point x="820" y="-15" type="line"/>
      <point x="1072" y="-15" type="line"/>
      <point x="1290" y="816" type="line"/>
      <point x="1402" y="1282" type="line"/>
      <point x="1429" y="816" type="line"/>
      <point x="1504" y="0" type="line"/>
      <point x="1816" y="0" type="line"/>
      <point x="1634" y="1522" type="line"/>
      <point x="1200" y="1522" type="line"/>
      <point x="1017" y="722" type="line"/>
      <point x="959" y="386" type="line"/>
      <point x="882" y="722" type="line"/>
      <point x="679" y="1522" type="line"/>
      <point x="232" y="1522" type="line"/>
    </contour>
    <contour>
      <point x="959" y="-170" type="move" name="btm"/>
    </contour>
    <contour>
      <point x="959" y="1700" type="move" name="top"/>
    </contour>
  </outline>
</glyph>
<glyph name="R" format="1">
  <advance width="1435"/>
  <unicode hex="0052"/>
  <outline>
    <contour>
      <point x="506" y="0" type="line"/>
      <point x="506" y="575" type="line"/>
      <point x="748" y="575"/>
      <point x="818" y="587"/>
      <point x="900" y="600" type="curve" smooth="yes"/>
      <point x="1139" y="638"/>
      <point x="1287" y="769"/>
      <point x="1287" y="1078" type="curve" smooth="yes"/>
      <point x="1287" y="1437"/>
      <point x="1024" y="1538"/>
      <point x="739" y="1538" type="curve" smooth="yes"/>
      <point x="520" y="1538"/>
      <point x="428" y="1522"/>
      <point x="335" y="1522" type="curve" smooth="yes"/>
      <point x="188" y="1522" type="line"/>
      <point x="188" y="0" type="line"/>
    </contour>
    <contour>
      <point x="506" y="804" type="curve"/>
      <point x="506" y="1283" type="line"/>
      <point x="561" y="1296"/>
      <point x="633" y="1301"/>
      <point x="701" y="1301" type="curve" smooth="yes"/>
      <point x="938" y="1301"/>
      <point x="978" y="1187"/>
      <point x="978" y="1069" type="curve" smooth="yes"/>
      <point x="978" y="927"/>
      <point x="907" y="798"/>
      <point x="715" y="798" type="curve" smooth="yes"/>
      <point x="663" y="798"/>
      <point x="548" y="799"/>
    </contour>
    <contour>
      <point x="1027" y="0" type="curve"/>
      <point x="1381" y="0" type="line"/>
      <point x="1318" y="110" type="line" smooth="yes"/>
      <point x="1204" y="307"/>
      <point x="1143" y="601"/>
      <point x="979" y="670" type="curve"/>
      <point x="787" y="651" type="line"/>
      <point x="707" y="579" type="line"/>
      <point x="854" y="577"/>
      <point x="885" y="288"/>
      <point x="971" y="110" type="curve" smooth="yes"/>
      <point x="1001" y="46"/>
      <point x="1009" y="26"/>
    </contour>
    <contour>
      <point x="734" y="-170" type="move" name="btm"/>
    </contour>
    <contour>
      <point x="755" y="1700" type="move" name="top"/>
    </contour>
  </outline>
</glyph>
<glyph name="bracketleft" format="1">
  <advance width="799"/>
  <unicode hex="005B"/>
  <outline>
    <contour>
      <point x="145" y="60" type="line"/>
      <point x="145" y="-137"/>
      <point x="181" y="-191"/>
      <point x="335" y="-191" type="curve" smooth="yes"/>
      <point x="499" y="-191"/>
      <point x="567" y="-181"/>
      <point x="696" y="-167" type="curve"/>
      <point x="696" y="-22" type="line"/>
      <point x="428" y="-20" type="line"/>
      <point x="428" y="1550" type="line"/>
      <point x="696" y="1550" type="line"/>
      <point x="696" y="1713" type="line"/>
      <point x="567" y="1724"/>
      <point x="499" y="1737"/>
      <point x="335" y="1737" type="curve" smooth="yes"/>
      <point x="182" y="1737"/>
      <point x="145" y="1683"/>
      <point x="145" y="1486" type="curve" smooth="yes"/>
    </contour>
  </outline>
</glyph>
<glyph name="asciicircum" format="1">
  <advance width="1373"/>
  <unicode hex="005E"/>
  <outline>
    <contour>
      <point x="434" y="490" type="line"/>
      <point x="696" y="1189" type="line"/>
      <point x="677" y="1189" type="line"/>
      <point x="939" y="490" type="line"/>
      <point x="1220" y="490" type="line"/>
      <point x="800" y="1531" type="line"/>
      <point x="573" y="1531" type="line"/>
      <point x="153" y="490" type="line"/>
    </contour>
  </outline>
</glyph>
<glyph name="l" format="1">
  <advance width="672"/>
  <unicode hex="006C"/>
  <outline>
    <contour>
      <point x="180" y="0" type="line"/>
      <point x="492" y="0" type="line"/>
      <point x="492" y="1662" type="line"/>
      <point x="180" y="1662" type="line"/>
    </contour>
    <contour>
      <point x="333" y="-170" type="move" name="btm"/>
    </contour>
    <contour>
      <point x="336" y="1700" type="move" name="top"/>
    </contour>
  </outline>
</glyph>
<glyph name="m" format="1">
  <advance width="2047"/>
  <unicode hex="006D"/>
  <outline>
    <contour>
      <point x="174" y="0" type="line"/>
      <point x="486" y="0" type="line"/>
      <point x="486" y="809" type="line"/>
      <point x="555" y="870"/>
      <point x="656" y="895"/>
      <point x="712" y="896" type="curve" smooth="yes"/>
      <point x="842" y="899"/>
      <point x="876" y="834"/>
      <point x="876" y="648" type="curve" smooth="yes"/>
      <point x="876" y="0" type="line"/>
      <point x="1188" y="0" type="line"/>
      <point x="1188" y="707" type="line" smooth="yes"/>
      <point x="1188" y="1041"/>
      <point x="1075" y="1168"/>
      <point x="834" y="1160" type="curve" smooth="yes"/>
      <point x="694" y="1156"/>
      <point x="540" y="1076"/>
      <point x="463" y="1018" type="curve"/>
      <point x="457" y="1140" type="line"/>
      <point x="174" y="1140" type="line"/>
    </contour>
    <contour>
      <point x="1178" y="807" type="line"/>
      <point x="1234" y="854"/>
      <point x="1327" y="895"/>
      <point x="1407" y="896" type="curve" smooth="yes"/>
      <point x="1542" y="899"/>
      <point x="1573" y="835"/>
      <point x="1573" y="649" type="curve" smooth="yes"/>
      <point x="1573" y="0" type="line"/>
      <point x="1885" y="0" type="line"/>
      <point x="1885" y="717" type="line" smooth="yes"/>
      <point x="1885" y="1051"/>
      <point x="1750" y="1162"/>
      <point x="1514" y="1160" type="curve" smooth="yes"/>
      <point x="1338" y="1159"/>
      <point x="1174" y="1063"/>
      <point x="1113" y="1010" type="curve"/>
    </contour>
    <contour>
      <point x="1027" y="-170" type="move" name="btm"/>
    </contour>
    <contour>
      <point x="1025" y="1700" type="move" name="top"/>
    </contour>
  </outline>
</glyph>
<glyph name="w" format="1">
  <advance width="1757"/>
  <unicode hex="0077"/>
  <outline>
    <contour>
      <point x="366" y="-16" type="line"/>
      <point x="655" y="-16" type="line"/>
      <point x="834" y="591" type="line"/>
      <point x="909" y="956" type="line"/>
      <point x="849" y="956" type="line"/>
      <point x="923" y="591" type="line"/>
      <point x="1105" y="-16" type="line"/>
      <point x="1383" y="-16" type="line"/>
      <point x="1739" y="1140" type="line"/>
      <point x="1437" y="1140" type="line"/>
      <point x="1305" y="586" type="line"/>
      <point x="1220" y="137" type="line"/>
      <point x="1287" y="137" type="line"/>
      <point x="1202" y="589" type="line"/>
      <point x="1037" y="1140" type="line"/>
      <point x="746" y="1140" type="line"/>
      <point x="581" y="588" type="line"/>
      <point x="486" y="134" type="line"/>
      <point x="557" y="134" type="line"/>
      <point x="472" y="589" type="line"/>
      <point x="330" y="1140" type="line"/>
      <point x="18" y="1140" type="line"/>
    </contour>
    <contour>
      <point x="884" y="-167" type="move" name="btm"/>
    </contour>
    <contour>
      <point x="884" y="1705" type="move" name="top"/>
    </contour>
  </outline>
</glyph>
<glyph name="x" format="1">
  <advance width="1220"/>
  <unicode hex="0078"/>
  <outline>
    <contour>
      <point x="36" y="0" type="line"/>
      <point x="393" y="0" type="line"/>
      <point x="577" y="319" type="line"/>
      <point x="643" y="454" type="line"/>
      <point x="553" y="454" type="line"/>
      <point x="636" y="321" type="line"/>
      <point x="842" y="0" type="line"/>
      <point x="1199" y="0" type="line"/>
      <point x="758" y="623" type="line"/>
      <point x="758" y="543" type="line"/>
      <point x="1191" y="1140" type="line"/>
      <point x="839" y="1140" type="line"/>
      <point x="651" y="844" type="line"/>
      <point x="584" y="710" type="line"/>
      <point x="664" y="710" type="line"/>
      <point x="585" y="843" type="line"/>
      <point x="389" y="1140" type="line"/>
      <point x="36" y="1140" type="line"/>
      <point x="464" y="539" type="line"/>
      <point x="458" y="607" type="line"/>
    </contour>
    <contour>
      <point x="624" y="-170" type="move" name="btm"/>
    </contour>
    <contour>
      <point x="624" y="1700" type="move" name="top"/>
    </contour>
  </outline>
</glyph>
<glyph name="braceleft" format="1">
  <advance width="952"/>
  <unicode hex="007B"/>
  <outline>
    <contour>
      <point x="324" y="60" type="line"/>
      <point x="324" y="-137"/>
      <point x="390" y="-211"/>
      <point x="544" y="-211" type="curve" smooth="yes"/>
      <point x="653" y="-211"/>
      <point x="770" y="-200"/>
      <point x="856" y="-176" type="curve"/>
      <point x="856" y="-20" type="line"/>
      <point x="594" y="-20" type="line"/>
      <point x="594" y="562" type="line" smooth="yes"/>
      <point x="594" y="603"/>
      <point x="580" y="636"/>
      <point x="555" y="664" type="curve" smooth="yes"/>
      <point x="505" y="720"/>
      <point x="402" y="759"/>
      <point x="317" y="787" type="curve"/>
      <point x="317" y="765" type="line"/>
      <point x="401" y="795"/>
      <point x="507" y="832"/>
      <point x="555" y="887" type="curve" smooth="yes"/>
      <point x="579" y="914"/>
      <point x="594" y="948"/>
      <point x="594" y="991" type="curve" smooth="yes"/>
      <point x="594" y="1562" type="line"/>
      <point x="856" y="1562" type="line"/>
      <point x="856" y="1733" type="line"/>
      <point x="770" y="1744"/>
      <point x="653" y="1757"/>
      <point x="544" y="1757" type="curve" smooth="yes"/>
      <point x="390" y="1757"/>
      <point x="324" y="1683"/>
      <point x="324" y="1486" type="curve" smooth="yes"/>
      <point x="324" y="1000" type="line" smooth="yes"/>
      <point x="324" y="925"/>
      <point x="169" y="883"/>
      <point x="68" y="873" type="curve"/>
      <point x="68" y="682" type="line"/>
      <point x="169" y="672"/>
      <point x="324" y="619"/>
      <point x="324" y="547" type="curve" smooth="yes"/>
    </contour>
  </outline>
</glyph>
<glyph name="section" format="1">
  <advance width="1402"/>
  <unicode hex="00A7"/>
  <outline>
    <contour>
      <point x="254" y="1322" type="curve" smooth="yes"/>
      <point x="254" y="876"/>
      <point x="949" y="937"/>
      <point x="949" y="627" type="curve" smooth="yes"/>
      <point x="949" y="543"/>
      <point x="873" y="405"/>
      <point x="834" y="352" type="curve"/>
      <point x="960" y="301" type="line"/>
      <point x="1104" y="393"/>
      <point x="1211" y="523"/>
      <point x="1211" y="678" type="curve" smooth="yes"/>
      <point x="1211" y="1104"/>
      <point x="553" y="1110"/>
      <point x="553" y="1322" type="curve" smooth="yes"/>
      <point x="553" y="1415"/>
      <point x="635" y="1449"/>
      <point x="745" y="1450" type="curve" smooth="yes"/>
      <point x="914" y="1451"/>
      <point x="1008" y="1406"/>
      <point x="1051" y="1375" type="curve"/>
      <point x="1093" y="1600" type="line"/>
      <point x="1035" y="1634"/>
      <point x="914" y="1673"/>
      <point x="727" y="1673" type="curve" smooth="yes"/>
      <point x="519" y="1673"/>
      <point x="254" y="1579"/>
    </contour>
    <contour>
      <point x="1172" y="160" type="curve" smooth="yes"/>
      <point x="1172" y="631"/>
      <point x="471" y="525"/>
      <point x="471" y="818" type="curve" smooth="yes"/>
      <point x="471" y="902"/>
      <point x="547" y="1007"/>
      <point x="586" y="1060" type="curve"/>
      <point x="449" y="1121" type="line"/>
      <point x="308" y="1036"/>
      <point x="203" y="909"/>
      <point x="203" y="767" type="curve" smooth="yes"/>
      <point x="203" y="339"/>
      <point x="873" y="361"/>
      <point x="873" y="165" type="curve" smooth="yes"/>
      <point x="873" y="65"/>
      <point x="783" y="31"/>
      <point x="663" y="30" type="curve" smooth="yes"/>
      <point x="491" y="29"/>
      <point x="368" y="86"/>
      <point x="317" y="125" type="curve"/>
      <point x="275" y="-100" type="line"/>
      <point x="337" y="-143"/>
      <point x="494" y="-193"/>
      <point x="681" y="-193" type="curve" smooth="yes"/>
      <point x="901" y="-193"/>
      <point x="1172" y="-95"/>
    </contour>
  </outline>
</glyph>
<glyph name="ordfeminine" format="1">
  <advance width="1067"/>
  <unicode hex="00AA"/>
  <outline>
    <contour>
      <point x="413" y="667" type="curve" smooth="yes"/>
      <point x="530" y="667"/>
      <point x="646" y="724"/>
      <point x="685" y="765" type="curve"/>
      <point x="716" y="828" type="line"/>
      <point x="673" y="907" type="line"/>
      <point x="654" y="892"/>
      <point x="580" y="858"/>
      <point x="497" y="858" type="curve" smooth="yes"/>
      <point x="433" y="858"/>
      <point x="375" y="890"/>
      <point x="375" y="958" type="curve" smooth="yes"/>
      <point x="375" y="1012"/>
      <point x="391" y="1052"/>
      <point x="450" y="1086" type="curve" smooth="yes"/>
      <point x="510" y="1118"/>
      <point x="588" y="1120"/>
      <point x="673" y="1120" type="curve"/>
      <point x="716" y="1180" type="line"/>
      <point x="673" y="1266" type="line"/>
      <point x="559" y="1266"/>
      <point x="431" y="1255"/>
      <point x="312" y="1211" type="curve" smooth="yes"/>
      <point x="202" y="1167"/>
      <point x="120" y="1080"/>
      <point x="120" y="940" type="curve" smooth="yes"/>
      <point x="120" y="776"/>
      <point x="230" y="667"/>
    </contour>
    <contour>
      <point x="933" y="677" type="line"/>
      <point x="933" y="1168" type="line"/>
      <point x="933" y="1307" type="line" smooth="yes"/>
      <point x="933" y="1538"/>
      <point x="799" y="1616"/>
      <point x="546" y="1616" type="curve" smooth="yes"/>
      <point x="387" y="1616"/>
      <point x="185" y="1540"/>
      <point x="147" y="1505" type="curve"/>
      <point x="203" y="1350" type="line"/>
      <point x="248" y="1381"/>
      <point x="406" y="1427"/>
      <point x="498" y="1427" type="curve" smooth="yes"/>
      <point x="621" y="1427"/>
      <point x="673" y="1409"/>
      <point x="673" y="1301" type="curve" smooth="yes"/>
      <point x="673" y="817" type="line"/>
      <point x="685" y="817" type="line"/>
      <point x="685" y="752" type="line" smooth="yes"/>
      <point x="685" y="671"/>
      <point x="728" y="677"/>
      <point x="803" y="677" type="curve" smooth="yes"/>
    </contour>
  </outline>
</glyph>
<glyph name="plusminus" format="1">
  <advance width="1403"/>
  <unicode hex="00B1"/>
  <outline>
    <contour>
      <point x="243" y="0" type="line"/>
      <point x="1152" y="0" type="line"/>
      <point x="1152" y="198" type="line"/>
      <point x="243" y="198" type="line"/>
    </contour>
    <component base="plus"/>
  </outline>
</glyph>
<glyph name="cedilla" format="1">
  <advance width="518"/>
  <unicode hex="00B8"/>
  <outline>
    <contour>
      <point x="33" y="-436" type="line"/>
      <point x="58" y="-452"/>
      <point x="155" y="-464"/>
      <point x="213" y="-464" type="curve" smooth="yes"/>
      <point x="347" y="-464"/>
      <point x="462" y="-392"/>
      <point x="468" y="-221" type="curve" smooth="yes"/>
      <point x="472" y="-123"/>
      <point x="452" y="-13"/>
      <point x="406" y="30" type="curve"/>
      <point x="357" y="34" type="line"/>
      <point x="220" y="30" type="line"/>
      <point x="240" y="-5"/>
      <point x="257" y="-48"/>
      <point x="251" y="-135" type="curve" smooth="yes"/>
      <point x="247" y="-238"/>
      <point x="195" y="-285"/>
      <point x="130" y="-285" type="curve" smooth="yes"/>
      <point x="99" y="-285"/>
      <point x="70" y="-282"/>
      <point x="53" y="-271" type="curve"/>
    </contour>
    <contour>
      <point x="318" y="-170" type="move" name="_btm"/>
    </contour>
  </outline>
</glyph>
<glyph name="AE" format="1">
  <advance width="1939"/>
  <unicode hex="00C6"/>
  <outline>
    <contour>
      <point x="-111" y="0" type="line"/>
      <point x="234" y="0" type="line"/>
      <point x="901" y="1411" type="line"/>
      <point x="655" y="1522" type="line"/>
    </contour>
    <contour>
      <point x="860" y="1522" type="line"/>
      <point x="655" y="1522" type="line"/>
      <point x="687" y="1376" type="line"/>
      <point x="918" y="1376" type="line"/>
    </contour>
    <contour>
      <point x="253" y="376" type="line"/>
      <point x="993" y="376" type="line"/>
      <point x="993" y="598" type="line"/>
      <point x="305" y="598" type="line"/>
    </contour>
    <contour>
      <point x="860" y="0" type="line"/>
      <point x="1853" y="0" type="line"/>
      <point x="1853" y="251" type="line"/>
      <point x="1178" y="251" type="line"/>
      <point x="1178" y="663" type="line"/>
      <point x="1646" y="663" type="line"/>
      <point x="1646" y="904" type="line"/>
      <point x="1178" y="904" type="line"/>
      <point x="1178" y="1278" type="line"/>
      <point x="1788" y="1278" type="line"/>
      <point x="1788" y="1522" type="line"/>
      <point x="860" y="1522" type="line"/>
    </contour>
    <contour>
      <point x="1405" y="-170" type="move" name="btm"/>
    </contour>
    <contour>
      <point x="1047" y="1700" type="move" name="top"/>
    </contour>
  </outline>
</glyph>
<glyph name="Thorn" format="1">
  <advance width="1359"/>
  <unicode hex="00DE"/>
  <outline>
    <contour>
      <point x="506" y="1522" type="line"/>
      <point x="188" y="1522" type="line"/>
      <point x="188" y="0" type="line"/>
      <point x="506" y="0" type="line"/>
    </contour>
    <contour>
      <point x="493" y="267" type="line"/>
      <point x="532" y="264"/>
      <point x="597" y="257"/>
      <point x="702" y="257" type="curve" smooth="yes"/>
      <point x="1078" y="257"/>
      <point x="1282" y="461"/>
      <point x="1282" y="805" type="curve" smooth="yes"/>
      <point x="1282" y="1136"/>
      <point x="1075" y="1287"/>
      <point x="749" y="1287" type="curve" smooth="yes"/>
      <point x="642" y="1287"/>
      <point x="539" y="1275"/>
      <point x="455" y="1272" type="curve"/>
      <point x="491" y="1024" type="line"/>
      <point x="540" y="1039"/>
      <point x="606" y="1044"/>
      <point x="659" y="1046" type="curve" smooth="yes"/>
      <point x="859" y="1054"/>
      <point x="967" y="968"/>
      <point x="967" y="802" type="curve" smooth="yes"/>
      <point x="967" y="544"/>
      <point x="826" y="500"/>
      <point x="662" y="500" type="curve" smooth="yes"/>
      <point x="613" y="500"/>
      <point x="551" y="500"/>
      <point x="493" y="513" type="curve"/>
    </contour>
  </outline>
</glyph>
<glyph name="germandbls" format="1">
  <advance width="1395"/>
  <unicode hex="00DF"/>
  <outline>
    <contour>
      <point x="193" y="0" type="line"/>
      <point x="510" y="0" type="line"/>
      <point x="510" y="951" type="line" smooth="yes"/>
      <point x="510" y="1270"/>
      <point x="608" y="1372"/>
      <point x="759" y="1372" type="curve" smooth="yes"/>
      <point x="863" y="1372"/>
      <point x="921" y="1319"/>
      <point x="921" y="1222" type="curve" smooth="yes"/>
      <point x="921" y="1058"/>
      <point x="729" y="1025"/>
      <point x="729" y="837" type="curve" smooth="yes"/>
      <point x="729" y="568"/>
      <point x="1024" y="528"/>
      <point x="1025" y="324" type="curve" smooth="yes"/>
      <point x="1025" y="225"/>
      <point x="928" y="197"/>
      <point x="861" y="197" type="curve" smooth="yes"/>
      <point x="775" y="197"/>
      <point x="706" y="224"/>
      <point x="680" y="240" type="curve"/>
      <point x="680" y="17" type="line"/>
      <point x="713" y="0"/>
      <point x="804" y="-16"/>
      <point x="916" y="-16" type="curve" smooth="yes"/>
      <point x="1129" y="-16"/>
      <point x="1342" y="64"/>
      <point x="1342" y="339" type="curve" smooth="yes"/>
      <point x="1342" y="679"/>
      <point x="998" y="733"/>
      <point x="998" y="889" type="curve" smooth="yes"/>
      <point x="998" y="1011"/>
      <point x="1245" y="1037"/>
      <point x="1245" y="1268" type="curve" smooth="yes"/>
      <point x="1245" y="1456"/>
      <point x="1074" y="1579"/>
      <point x="804" y="1579" type="curve" smooth="yes"/>
      <point x="467" y="1579"/>
      <point x="193" y="1407"/>
      <point x="193" y="976" type="curve" smooth="yes"/>
    </contour>
    <contour>
      <point x="54" y="924" type="line"/>
      <point x="198" y="924" type="line"/>
      <point x="250" y="1038" type="line"/>
      <point x="221" y="1150" type="line"/>
      <point x="54" y="1119" type="line"/>
    </contour>
  </outline>
</glyph>
<glyph name="eth" format="1">
  <advance width="1294"/>
  <unicode hex="00F0"/>
  <outline>
    <contour>
      <point x="654" y="-27" type="curve" smooth="yes"/>
      <point x="966" y="-25"/>
      <point x="1215" y="204"/>
      <point x="1215" y="651" type="curve" smooth="yes"/>
      <point x="1215" y="1052"/>
      <point x="1005" y="1437"/>
      <point x="679" y="1608" type="curve" smooth="yes"/>
      <point x="662" y="1617"/>
      <point x="603" y="1648"/>
      <point x="585" y="1659" type="curve" smooth="yes"/>
      <point x="493" y="1715"/>
      <point x="402" y="1749"/>
      <point x="273" y="1787" type="curve"/>
      <point x="220" y="1611" type="line"/>
      <point x="302" y="1587"/>
      <point x="383" y="1547"/>
      <point x="454" y="1499" type="curve" smooth="yes"/>
      <point x="470" y="1488"/>
      <point x="485" y="1473"/>
      <point x="501" y="1464" type="curve" smooth="yes"/>
      <point x="668" y="1368"/>
      <point x="807" y="1198"/>
      <point x="834" y="1021" type="curve"/>
      <point x="933" y="948" type="line"/>
      <point x="902" y="1047"/>
      <point x="797" y="1149"/>
      <point x="624" y="1149" type="curve" smooth="yes"/>
      <point x="286" y="1149"/>
      <point x="95" y="913"/>
      <point x="95" y="550" type="curve" smooth="yes"/>
      <point x="95" y="206"/>
      <point x="313" y="-29"/>
    </contour>
    <contour>
      <point x="660" y="202" type="curve" smooth="yes"/>
      <point x="511" y="202"/>
      <point x="419" y="319"/>
      <point x="419" y="547" type="curve" smooth="yes"/>
      <point x="419" y="792"/>
      <point x="510" y="932"/>
      <point x="660" y="932" type="curve" smooth="yes"/>
      <point x="774" y="932"/>
      <point x="855" y="869"/>
      <point x="886" y="816" type="curve"/>
      <point x="891" y="753"/>
      <point x="892" y="648"/>
      <point x="892" y="574" type="curve" smooth="yes"/>
      <point x="892" y="334"/>
      <point x="790" y="202"/>
    </contour>
    <contour>
      <point x="451" y="1262" type="line"/>
      <point x="616" y="1485" type="line"/>
      <point x="640" y="1521" type="line"/>
      <point x="692" y="1574"/>
      <point x="826" y="1752"/>
      <point x="826" y="1752" type="curve"/>
      <point x="674" y="1852" type="line"/>
      <point x="674" y="1852"/>
      <point x="537" y="1656"/>
      <point x="493" y="1609" type="curve"/>
      <point x="469" y="1577" type="line"/>
      <point x="302" y="1361" type="line"/>
    </contour>
  </outline>
</glyph>
<glyph name="dcroat" format="1">
  <advance width="1339"/>
  <unicode hex="0111"/>
  <outline>
    <contour>
      <point x="632" y="1293" type="line"/>
      <point x="1299" y="1293" type="line"/>
      <point x="1299" y="1473" type="line"/>
      <point x="632" y="1473" type="line"/>
    </contour>
    <component base="d"/>
  </outline>
</glyph>
<glyph name="Eogonek" format="1">
  <advance width="1254"/>
  <unicode hex="0118"/>
  <outline>
    <contour>
      <point x="696" y="-316" type="curve"/>
      <point x="702" y="-443"/>
      <point x="831" y="-516"/>
      <point x="957" y="-516" type="curve" smooth="yes"/>
      <point x="1041" y="-516"/>
      <point x="1129" y="-491"/>
      <point x="1187" y="-448" type="curve"/>
      <point x="1187" y="-291" type="line"/>
      <point x="1145" y="-303"/>
      <point x="1101" y="-311"/>
      <point x="1062" y="-311" type="curve" smooth="yes"/>
      <point x="995" y="-311"/>
      <point x="944" y="-288"/>
      <point x="941" y="-223" type="curve"/>
      <point x="934" y="-123"/>
      <point x="1030" y="-58"/>
      <point x="1140" y="13" type="curve"/>
      <point x="1034" y="54" type="line"/>
      <point x="914" y="1" type="line"/>
      <point x="808" y="-57"/>
      <point x="687" y="-165"/>
    </contour>
    <component base="E"/>
  </outline>
</glyph>
<glyph name="Hbar" format="1">
  <advance width="1621"/>
  <unicode hex="0126"/>
  <outline>
    <contour>
      <point x="188" y="0" type="line"/>
      <point x="510" y="0" type="line"/>
      <point x="510" y="621" type="line"/>
      <point x="1111" y="621" type="line"/>
      <point x="1111" y="0" type="line"/>
      <point x="1433" y="0" type="line"/>
      <point x="1433" y="1522" type="line"/>
      <point x="1111" y="1522" type="line"/>
      <point x="1111" y="854" type="line"/>
      <point x="510" y="854" type="line"/>
      <point x="510" y="1522" type="line"/>
      <point x="188" y="1522" type="line"/>
    </contour>
    <contour>
      <point x="24" y="1045" type="line"/>
      <point x="1599" y="1045" type="line"/>
      <point x="1599" y="1237" type="line"/>
      <point x="24" y="1237" type="line"/>
    </contour>
  </outline>
</glyph>
<glyph name="hbar" format="1">
  <advance width="1351"/>
  <unicode hex="0127"/>
  <outline>
    <contour>
      <point x="36" y="1293" type="line"/>
      <point x="703" y="1293" type="line"/>
      <point x="703" y="1473" type="line"/>
      <point x="36" y="1473" type="line"/>
    </contour>
    <component base="h"/>
  </outline>
</glyph>
<glyph name="Iogonek" format="1">
  <advance width="731"/>
  <unicode hex="012E"/>
  <outline>
    <contour>
      <point x="41" y="-316" type="curve"/>
      <point x="47" y="-443"/>
      <point x="176" y="-516"/>
      <point x="302" y="-516" type="curve" smooth="yes"/>
      <point x="386" y="-516"/>
      <point x="474" y="-491"/>
      <point x="532" y="-448" type="curve"/>
      <point x="532" y="-291" type="line"/>
      <point x="490" y="-303"/>
      <point x="446" y="-311"/>
      <point x="407" y="-311" type="curve" smooth="yes"/>
      <point x="340" y="-311"/>
      <point x="289" y="-288"/>
      <point x="286" y="-223" type="curve"/>
      <point x="279" y="-123"/>
      <point x="375" y="-58"/>
      <point x="485" y="13" type="curve"/>
      <point x="379" y="54" type="line"/>
      <point x="259" y="1" type="line"/>
      <point x="153" y="-57"/>
      <point x="32" y="-165"/>
    </contour>
    <component base="I"/>
  </outline>
</glyph>
<glyph name="iogonek" format="1">
  <advance width="660"/>
  <unicode hex="012F"/>
  <outline>
    <contour>
      <point x="10" y="-316" type="curve"/>
      <point x="16" y="-443"/>
      <point x="145" y="-516"/>
      <point x="271" y="-516" type="curve" smooth="yes"/>
      <point x="355" y="-516"/>
      <point x="443" y="-491"/>
      <point x="501" y="-448" type="curve"/>
      <point x="501" y="-291" type="line"/>
      <point x="459" y="-303"/>
      <point x="415" y="-311"/>
      <point x="376" y="-311" type="curve" smooth="yes"/>
      <point x="309" y="-311"/>
      <point x="258" y="-288"/>
      <point x="255" y="-223" type="curve"/>
      <point x="248" y="-123"/>
      <point x="344" y="-58"/>
      <point x="454" y="13" type="curve"/>
      <point x="348" y="54" type="line"/>
      <point x="228" y="1" type="line"/>
      <point x="122" y="-57"/>
      <point x="1" y="-165"/>
    </contour>
    <component base="idotless"/>
    <component base="dotaccent" xOffset="93"/>
  </outline>
</glyph>
<glyph name="Eng" format="1">
  <advance width="1620"/>
  <unicode hex="014A"/>
  <outline>
    <contour>
      <point x="502" y="0" type="line"/>
      <point x="502" y="741" type="line"/>
      <point x="441" y="1311" type="line"/>
      <point x="356" y="1311" type="line"/>
      <point x="579" y="861" type="line"/>
      <point x="1105" y="19" type="line"/>
      <point x="1105" y="-121"/>
      <point x="912" y="-267"/>
      <point x="741" y="-316" type="curve"/>
      <point x="811" y="-441" type="line"/>
      <point x="1080" y="-429"/>
      <point x="1337" y="-267"/>
      <point x="1400" y="-37" type="curve" smooth="yes"/>
      <point x="1438" y="97"/>
      <point x="1431" y="222"/>
      <point x="1431" y="409" type="curve" smooth="yes"/>
      <point x="1431" y="1522" type="line"/>
      <point x="1116" y="1522" type="line"/>
      <point x="1116" y="765" type="line"/>
      <point x="1164" y="277" type="line"/>
      <point x="1216" y="277" type="line"/>
      <point x="1039" y="627" type="line"/>
      <point x="495" y="1522" type="line"/>
      <point x="187" y="1522" type="line"/>
      <point x="188" y="0" type="line"/>
    </contour>
  </outline>
</glyph>
<glyph name="oe" format="1">
  <advance width="1962"/>
  <unicode hex="0153"/>
  <outline>
    <contour>
      <point x="1405" y="-16" type="curve" smooth="yes"/>
      <point x="1582" y="-16"/>
      <point x="1753" y="37"/>
      <point x="1828" y="98" type="curve"/>
      <point x="1777" y="275" type="line"/>
      <point x="1717" y="242"/>
      <point x="1565" y="216"/>
      <point x="1484" y="216" type="curve" smooth="yes"/>
      <point x="1303" y="216"/>
      <point x="1185" y="307"/>
      <point x="1179" y="514" type="curve"/>
      <point x="1173" y="840"/>
      <point x="1262" y="934"/>
      <point x="1402" y="934" type="curve" smooth="yes"/>
      <point x="1542" y="934"/>
      <point x="1585" y="835"/>
      <point x="1575" y="668" type="curve"/>
      <point x="1054" y="668" type="line"/>
      <point x="1034" y="495" type="line"/>
      <point x="1854" y="495" type="line"/>
      <point x="1862" y="546"/>
      <point x="1865" y="623"/>
      <point x="1865" y="709" type="curve" smooth="yes"/>
      <point x="1865" y="1041"/>
      <point x="1648" y="1158"/>
      <point x="1412" y="1156" type="curve" smooth="yes"/>
      <point x="1062" y="1154"/>
      <point x="875" y="906"/>
      <point x="875" y="574" type="curve" smooth="yes"/>
      <point x="875" y="204"/>
      <point x="1057" y="-16"/>
    </contour>
    <contour>
      <point x="642" y="204" type="curve" smooth="yes"/>
      <point x="479" y="206"/>
      <point x="419" y="387"/>
      <point x="419" y="586" type="curve" smooth="yes"/>
      <point x="419" y="807"/>
      <point x="484" y="935"/>
      <point x="649" y="934" type="curve"/>
      <point x="813" y="932"/>
      <point x="873" y="755"/>
      <point x="873" y="561" type="curve" smooth="yes"/>
      <point x="873" y="332"/>
      <point x="807" y="202"/>
    </contour>
    <contour>
      <point x="635" y="-16" type="curve" smooth="yes"/>
      <point x="958" y="-16"/>
      <point x="1172" y="180"/>
      <point x="1177" y="546" type="curve" smooth="yes"/>
      <point x="1182" y="871"/>
      <point x="1058" y="1156"/>
      <point x="656" y="1156" type="curve" smooth="yes"/>
      <point x="332" y="1156"/>
      <point x="101" y="960"/>
      <point x="96" y="594" type="curve" smooth="yes"/>
      <point x="91" y="269"/>
      <point x="233" y="-16"/>
    </contour>
    <contour>
      <point x="1049" y="-170" type="move" name="btm"/>
    </contour>
    <contour>
      <point x="1049" y="1700" type="move" name="top"/>
    </contour>
  </outline>
</glyph>
<glyph name="tilde" format="1">
  <advance width="937"/>
  <unicode hex="02DC"/>
  <outline>
    <contour>
      <point x="157" y="1375" type="line"/>
      <point x="194" y="1421"/>
      <point x="253" y="1477"/>
      <point x="311" y="1477" type="curve" smooth="yes"/>
      <point x="425" y="1477"/>
      <point x="449" y="1344"/>
      <point x="610" y="1344" type="curve" smooth="yes"/>
      <point x="764" y="1344"/>
      <point x="863" y="1441"/>
      <point x="908" y="1572" type="curve"/>
      <point x="782" y="1680" type="line"/>
      <point x="745" y="1629"/>
      <point x="694" y="1569"/>
      <point x="627" y="1569" type="curve" smooth="yes"/>
      <point x="524" y="1569"/>
      <point x="505" y="1699"/>
      <point x="333" y="1699" type="curve" smooth="yes"/>
      <point x="180" y="1699"/>
      <point x="76" y="1599"/>
      <point x="32" y="1473" type="curve"/>
    </contour>
    <contour>
      <point x="478" y="1701" type="move" name="_top"/>
    </contour>
  </outline>
</glyph>
<glyph name="dagger" format="1">
  <advance width="1036"/>
  <unicode hex="2020"/>
  <outline>
    <contour>
      <point x="406" y="200" type="line"/>
      <point x="634" y="200" type="line"/>
      <point x="646" y="1077" type="line"/>
      <point x="929" y="1076" type="line"/>
      <point x="929" y="1288" type="line"/>
      <point x="646" y="1286" type="line"/>
      <point x="646" y="1658" type="line"/>
      <point x="390" y="1658" type="line"/>
      <point x="390" y="1286" type="line"/>
      <point x="108" y="1288" type="line"/>
      <point x="107" y="1076" type="line"/>
      <point x="390" y="1077" type="line"/>
    </contour>
  </outline>
</glyph>
<glyph name="daggerdbl" format="1">
  <advance width="1036"/>
  <unicode hex="2021"/>
  <outline>
    <contour>
      <point x="405" y="-356" type="line"/>
      <point x="624" y="-356" type="line"/>
      <point x="645" y="428" type="line"/>
      <point x="928" y="427" type="line"/>
      <point x="928" y="639" type="line"/>
      <point x="645" y="639" type="line"/>
      <point x="645" y="1077" type="line"/>
      <point x="929" y="1076" type="line"/>
      <point x="929" y="1288" type="line"/>
      <point x="645" y="1287" type="line"/>
      <point x="645" y="1658" type="line"/>
      <point x="390" y="1658" type="line"/>
      <point x="390" y="1287" type="line"/>
      <point x="108" y="1288" type="line"/>
      <point x="107" y="1076" type="line"/>
      <point x="390" y="1077" type="line"/>
      <point x="390" y="639" type="line"/>
      <point x="107" y="639" type="line"/>
      <point x="107" y="427" type="line"/>
      <point x="390" y="428" type="line"/>
    </contour>
  </outline>
</glyph>
<glyph name="franc" format="1">
  <advance width="1266"/>
  <unicode hex="20A3"/>
  <outline>
    <contour>
      <point x="55" y="217" type="line" name="hr00"/>
      <point x="225" y="217" type="line"/>
      <point x="225" y="0" type="line"/>
      <point x="585" y="0" type="line"/>
      <point x="585" y="217" type="line"/>
      <point x="855" y="217" type="line"/>
      <point x="855" y="438" type="line"/>
      <point x="585" y="438" type="line"/>
      <point x="585" y="596" type="line"/>
      <point x="1035" y="596" type="line"/>
      <point x="1035" y="862" type="line"/>
      <point x="585" y="862" type="line"/>
      <point x="585" y="1253" type="line"/>
      <point x="1164" y="1253" type="line"/>
      <point x="1164" y="1522" type="line"/>
      <point x="225" y="1522" type="line"/>
      <point x="225" y="438" type="line"/>
      <point x="55" y="438" type="line"/>
    </contour>
  </outline>
</glyph>
<glyph name="cedi" format="1">
  <advance width="1468"/>
  <unicode hex="20B5"/>
  <outline>
    <contour>
      <point x="110" y="757" type="curve" name="hr00" smooth="yes"/>
      <point x="110" y="347"/>
      <point x="311" y="70"/>
      <point x="685" y="1" type="curve"/>
      <point x="654" y="-354" type="line"/>
      <point x="801" y="-354" type="line"/>
      <point x="831" y="-15" type="line"/>
      <point x="847" y="-15"/>
      <point x="863" y="-16"/>
      <point x="880" y="-16" type="curve" smooth="yes"/>
      <point x="1057" y="-16"/>
      <point x="1174" y="31"/>
      <point x="1250" y="64" type="curve"/>
      <point x="1249" y="364" type="line"/>
      <point x="1198" y="317"/>
      <point x="1054" y="266"/>
      <point x="919" y="266" type="curve" smooth="yes"/>
      <point x="897" y="266"/>
      <point x="877" y="267"/>
      <point x="857" y="269" type="curve"/>
      <point x="944" y="1246" type="line"/>
      <point x="1110" y="1241"/>
      <point x="1197" y="1186"/>
      <point x="1223" y="1165" type="curve"/>
      <point x="1270" y="1477" type="line"/>
      <point x="1207" y="1492"/>
      <point x="1124" y="1526"/>
      <point x="970" y="1535" type="curve"/>
      <point x="995" y="1815" type="line"/>
      <point x="848" y="1815" type="line"/>
      <point x="823" y="1536" type="line"/>
      <point x="427" y="1512"/>
      <point x="110" y="1252"/>
    </contour>
    <contour>
      <point x="485" y="779" type="curve" smooth="yes"/>
      <point x="485" y="1029"/>
      <point x="608" y="1187"/>
      <point x="796" y="1233" type="curve"/>
      <point x="713" y="309" type="line"/>
      <point x="560" y="383"/>
      <point x="485" y="551"/>
    </contour>
  </outline>
</glyph>
<glyph name="partialdiff" format="1">
  <advance width="1415"/>
  <unicode hex="2202"/>
  <outline>
    <contour>
      <point x="669" y="-30" type="curve" smooth="yes"/>
      <point x="1113" y="-30"/>
      <point x="1303" y="293"/>
      <point x="1303" y="820" type="curve" smooth="yes"/>
      <point x="1303" y="1278"/>
      <point x="1087" y="1726"/>
      <point x="547" y="1726" type="curve" smooth="yes"/>
      <point x="407" y="1726"/>
      <point x="249" y="1683"/>
      <point x="139" y="1600" type="curve"/>
      <point x="242" y="1425" type="line"/>
      <point x="306" y="1467"/>
      <point x="413" y="1495"/>
      <point x="501" y="1495" type="curve" smooth="yes"/>
      <point x="832" y="1495"/>
      <point x="984" y="1254"/>
      <point x="991" y="909" type="curve" smooth="yes"/>
      <point x="991" y="863"/>
      <point x="990" y="799"/>
      <point x="990" y="729" type="curve" smooth="yes"/>
      <point x="990" y="547"/>
      <point x="960" y="192"/>
      <point x="718" y="192" type="curve" smooth="yes"/>
      <point x="512" y="192"/>
      <point x="454" y="331"/>
      <point x="448" y="520" type="curve" smooth="yes"/>
      <point x="441" y="782"/>
      <point x="558" y="891"/>
      <point x="734" y="891" type="curve" smooth="yes"/>
      <point x="871" y="891"/>
      <point x="956" y="852"/>
      <point x="1066" y="763" type="curve"/>
      <point x="1066" y="988" type="line"/>
      <point x="979" y="1043"/>
      <point x="880" y="1096"/>
      <point x="730" y="1096" type="curve" smooth="yes"/>
      <point x="414" y="1096"/>
      <point x="116" y="925"/>
      <point x="126" y="495" type="curve" smooth="yes"/>
      <point x="133" y="190"/>
      <point x="383" y="-30"/>
    </contour>
  </outline>
</glyph>
<glyph name="integral" format="1">
  <advance width="1082"/>
  <unicode hex="222B"/>
  <outline>
    <contour>
      <point x="425" y="-518" type="curve" smooth="yes"/>
      <point x="768" y="-518"/>
      <point x="889" y="-250"/>
      <point x="882" y="-21" type="curve" smooth="yes"/>
      <point x="870" y="377"/>
      <point x="490" y="804"/>
      <point x="480" y="1202" type="curve" smooth="yes"/>
      <point x="475" y="1370"/>
      <point x="533" y="1473"/>
      <point x="683" y="1473" type="curve" smooth="yes"/>
      <point x="777" y="1473"/>
      <point x="843" y="1420"/>
      <point x="859" y="1385" type="curve"/>
      <point x="983" y="1548" type="line"/>
      <point x="949" y="1619"/>
      <point x="849" y="1685"/>
      <point x="670" y="1685" type="curve" smooth="yes"/>
      <point x="331" y="1685"/>
      <point x="198" y="1460"/>
      <point x="205" y="1192" type="curve" smooth="yes"/>
      <point x="215" y="795"/>
      <point x="597" y="364"/>
      <point x="608" y="-35" type="curve" smooth="yes"/>
      <point x="613" y="-203"/>
      <point x="567" y="-306"/>
      <point x="417" y="-306" type="curve" smooth="yes"/>
      <point x="333" y="-306"/>
      <point x="225" y="-235"/>
      <point x="196" y="-193" type="curve"/>
      <point x="105" y="-386" type="line"/>
      <point x="142" y="-461"/>
      <point x="322" y="-518"/>
    </contour>
  </outline>
</glyph>
<glyph name="lessequal" format="1">
  <advance width="1378"/>
  <unicode hex="2264"/>
  <outline>
    <contour>
      <point x="175" y="-1" type="line"/>
      <point x="1144" y="-1" type="line"/>
      <point x="1144" y="204" type="line"/>
      <point x="175" y="204" type="line"/>
    </contour>
    <contour>
      <point x="1144" y="278" type="line"/>
      <point x="1144" y="541" type="line"/>
      <point x="480" y="786" type="line"/>
      <point x="480" y="761" type="line"/>
      <point x="1144" y="1009" type="line"/>
      <point x="1144" y="1271" type="line"/>
      <point x="175" y="851" type="line"/>
      <point x="175" y="696" type="line"/>
    </contour>
  </outline>
</glyph>
<glyph name="breve.cap" format="1">
  <advance width="815"/>
  <outline>
    <contour>
      <point x="408" y="1614" type="curve" smooth="yes"/>
      <point x="644" y="1614"/>
      <point x="779" y="1757"/>
      <point x="771" y="1960" type="curve"/>
      <point x="584" y="1960" type="line"/>
      <point x="580" y="1912"/>
      <point x="561" y="1817"/>
      <point x="408" y="1817" type="curve" smooth="yes"/>
      <point x="252" y="1817"/>
      <point x="239" y="1912"/>
      <point x="235" y="1960" type="curve"/>
      <point x="44" y="1960" type="line"/>
      <point x="36" y="1757"/>
      <point x="160" y="1614"/>
    </contour>
    <contour>
      <point x="409" y="1701" type="move" name="_top"/>
    </contour>
  </outline>
</glyph>
<glyph name="dotaccent.cap" format="1">
  <advance width="489"/>
  <outline>
    <contour>
      <point x="236" y="1614" type="curve" smooth="yes"/>
      <point x="342" y="1614"/>
      <point x="425" y="1692"/>
      <point x="425" y="1795" type="curve" smooth="yes"/>
      <point x="425" y="1893"/>
      <point x="365" y="1959"/>
      <point x="254" y="1959" type="curve" smooth="yes"/>
      <point x="150" y="1959"/>
      <point x="64" y="1880"/>
      <point x="64" y="1778" type="curve" smooth="yes"/>
      <point x="64" y="1678"/>
      <point x="134" y="1614"/>
    </contour>
    <contour>
      <point x="239" y="1701" type="move" name="_top"/>
    </contour>
  </outline>
</glyph>
